<svg width="835" height="304" viewBox="0 0 835 304" fill="none" xmlns="http://www.w3.org/2000/svg">
<path d="M93.3025 15.4005C73.7481 26.6902 55.8 38.8228 38.9774 51.422C27.6583 59.8993 17.4893 68.2859 11.9024 78.4503C10.9776 80.1331 2.84296 91.2896 11.4643 91.3257C16.9885 91.3488 29.1596 88.2096 32.6687 87.2469C46.6996 83.3975 60.4299 78.6823 72.7553 73.2904C79.4314 70.3699 86.5784 66.6836 90.9367 62.5282C91.6589 61.8396 91.8561 61.3634 90.411 62.0613C88.2239 63.1176 86.4996 64.5431 85.0223 65.8944C77.9707 72.3446 73.0946 79.7246 70.2143 87.0994C69.2116 89.6667 67.8959 92.9887 69.2943 95.6748C72.2139 101.283 84.0165 99.6427 91.1996 98.1074C108.822 94.3406 125.279 87.1383 137.551 79.1875C141.07 76.9074 154.794 65.2471 137.639 75.8949C130.153 80.5411 115.001 90.8931 112.316 97.0754C107.233 108.781 128.925 104.493 138.427 102.186C163.067 96.2055 194.01 82.5564 214.921 73.7327C222.105 70.7008 228.58 67.1104 236.213 64.4447C237.622 63.9524 235.213 66.2632 234.197 67.0001C225.834 73.0688 216.509 78.7089 208.174 84.7897C175.81 108.399 157.272 123.295 129.534 149.388C112.374 165.529 91.7752 186.083 80.685 204.525C77.2873 210.176 68.0842 222.181 85.0661 226.001C92.7525 227.729 101.734 227.749 109.863 226.861C139.653 223.605 183.385 210.888 207.56 202.928C236.312 193.463 279.373 176.422 305.258 163.811C321.942 155.682 344.427 142.499 355.815 131.328C357.749 129.431 374.309 110.234 364.928 105.43C359.352 102.574 349.562 103.418 342.322 104.619C306.387 110.579 263.877 129.869 238.053 142.016C189.085 165.05 156.417 184.276 115.383 211.651C76.821 237.377 67.425 246.695 34.2896 272.318C26.2934 278.501 17.4871 284.358 9.88716 290.697C6.72357 293.335 1.23599 296.03 2.08888 299.174C2.68946 301.387 8.96182 301.992 12.9539 302C26.907 302.026 40.7825 300.611 54.5301 299.272C189.14 286.168 315.43 255.154 432.834 216.639C490.331 197.777 537.826 180.144 586.96 155.26C606.336 145.447 624.887 135.041 641.635 123.809C665.144 108.043 700.94 76.8486 715.675 57.4174C722.735 48.1078 737.7 23.6547 723.999 11.8622C709.963 -0.219498 670.151 1.83054 652.325 4.49087C612.628 10.4153 564.045 27.6611 532.284 40.9055C500.583 54.1251 462.63 74.2276 435.551 90.8834C413.198 104.632 392.368 119.944 381.751 137.765C379.547 141.466 377.575 145.217 376.012 149.019C374.533 152.615 366.354 158.834 372.639 159.929C383.6 161.838 395.459 157.276 405.497 154.154C463.529 136.106 616.932 75.7028 655.786 60.9065C698.393 44.6812 740.057 27.6255 783.932 12.5011C794.966 8.69747 821.378 -2.90046 819.944 4.31887C817.632 15.9608 793.516 22.4621 780.164 31.4701C758.832 45.8624 735.985 59.5752 715.894 74.5189C682.293 99.5123 662.142 118.622 641.022 146.709C635.456 154.112 617.659 175.542 627.397 186.613C637.235 197.797 667.138 193.788 681.109 192.24C713.821 188.615 738.391 182.277 767.591 173.517C778.576 170.221 788.942 166.314 799.529 162.631C805.168 160.67 810.32 158.24 816.264 156.587C817.404 156.27 820.366 156.242 820.032 156.931C819.379 158.278 803.763 170.498 803.647 170.593C800.024 173.554 794.673 177.711 792.081 181.256C791.316 182.303 790.386 184.92 792.344 184.647C794.95 184.285 801.566 180.055 802.245 179.635C807.002 176.692 811.113 173.235 816.308 170.519C820.141 168.515 828.292 170.82 833 171.084" stroke="white" stroke-width="3" stroke-linecap="round"/>
</svg>
