<svg width="1440" height="267" viewBox="0 0 1440 267" fill="none" xmlns="http://www.w3.org/2000/svg">
<path opacity="0.4" d="M2.65986 184.943C68.2831 154.574 227.984 92.4548 341.799 86.9267C484.069 80.0164 645.648 163.276 778.673 156.814C911.698 150.353 1002.54 70.4374 1151.49 63.2029C1300.44 55.9683 1374.68 90.1136 1446.59 86.6211" stroke="white" stroke-width="3"/>
<path d="M9.06508 265.279C66.9806 203.73 203.387 79.6327 285.69 75.6352C388.569 70.6382 547.459 219.105 626.865 215.248C706.272 211.391 787.144 72.8042 871.045 68.729C954.946 64.6538 994.647 98.7679 1081.55 94.5472C1168.44 90.3265 1176.81 76.7482 1238.61 50.8761C1377.95 -7.45224 1439.34 2.58084 1454.99 1.82079" stroke="white" stroke-width="3"/>
<path opacity="0.99" d="M-14.5615 129.265C46.2848 148.669 212.525 185.314 390.715 176.659C613.452 165.841 685.114 95.2809 767.517 91.2785C849.919 87.2761 1068.28 151.258 1258.94 150.006C1449.61 148.755 1458.29 135.151 1447.4 103.309" stroke="white" stroke-width="3"/>
</svg>
