<svg width="1432" height="798" viewBox="0 0 1432 798" fill="none" xmlns="http://www.w3.org/2000/svg">
<path d="M1582.01 288.129C1587.68 327.405 1571.75 368.02 1537.83 407.885C1503.92 447.748 1452.09 486.764 1386.2 522.775C1254.42 594.795 1066.6 654.694 853.965 685.363C641.331 716.031 444.235 711.648 297.479 679.801C224.098 663.876 163.356 641.097 119.557 612.442C75.7568 583.786 49.0011 549.328 43.3364 510.052C37.6717 470.777 53.5996 430.162 87.5175 390.297C121.434 350.433 173.263 311.418 239.154 275.406C370.929 203.387 558.753 143.487 771.387 112.819C984.021 82.151 1181.12 86.534 1327.87 118.381C1401.25 134.305 1461.99 157.085 1505.79 185.739C1549.59 214.395 1576.35 248.854 1582.01 288.129Z" stroke="white" stroke-width="2"/>
<path opacity="0.8" d="M1350.28 294.211C1356.62 323.409 1346.82 354.789 1323.41 386.6C1300 418.41 1263.05 450.547 1215.34 481.18C1119.91 542.442 981.607 597.567 823.045 631.991C664.484 666.416 515.773 673.604 403.535 657.426C347.412 649.337 300.464 635.414 265.972 616.175C231.478 596.935 209.548 572.444 203.209 543.246C196.87 514.047 206.67 482.668 230.081 450.857C253.49 419.047 290.438 386.909 338.154 356.276C433.579 295.014 571.883 239.89 730.444 205.465C889.006 171.041 1037.72 163.853 1149.95 180.03C1206.08 188.119 1253.03 202.043 1287.52 221.282C1322.01 240.522 1343.94 265.013 1350.28 294.211Z" stroke="white" stroke-width="2"/>
<path opacity="0.3" d="M1147.68 472.45C1144.96 491.213 1132.16 507.731 1111.08 521.509C1089.99 535.286 1060.72 546.25 1025.32 553.911C954.525 569.23 859.419 571.294 756.801 556.432C654.184 541.571 563.571 512.61 500.03 477.834C468.256 460.444 443.3 441.627 426.99 422.434C410.679 403.24 403.091 383.769 405.809 365.006C408.526 346.244 421.326 329.725 442.412 315.947C463.497 302.17 492.766 291.207 528.169 283.546C598.965 268.226 694.07 266.162 796.688 281.024C899.306 295.886 989.918 324.847 1053.46 359.622C1085.23 377.012 1110.19 395.829 1126.5 415.022C1142.81 434.216 1150.4 453.687 1147.68 472.45Z" stroke="white" stroke-width="2"/>
<path opacity="0.9" d="M1063.17 398.889C1064.16 413.297 1057.3 427.687 1043.76 441.401C1030.22 455.113 1010.09 468.058 984.817 479.528C934.282 502.466 863.381 519.42 784.1 524.911C704.819 530.403 632.258 523.386 579.043 507.635C552.432 499.758 530.712 489.713 515.411 477.998C500.108 466.282 491.322 452.976 490.324 438.568C489.326 424.159 496.194 409.769 509.735 396.055C523.275 382.343 543.402 369.399 568.673 357.928C619.208 334.99 690.109 318.037 769.39 312.545C848.671 307.054 921.232 314.07 974.447 329.821C1001.06 337.698 1022.78 347.744 1038.08 359.459C1053.38 371.175 1062.17 384.48 1063.17 398.889Z" stroke="white" stroke-width="2"/>
<circle cx="1106" cy="94" r="35.5" fill="black" stroke="white" stroke-width="5"/>
<circle cx="640" cy="661" r="19" fill="#FFF848"/>
<circle cx="134" cy="347" r="19" fill="white"/>
<circle cx="1367" cy="525" r="37" fill="white"/>
</svg>
